<?xml version="1.0" standalone="no"?>
<!DOCTYPE svg PUBLIC "-//W3C//DTD SVG 20010904//EN"
 "http://www.w3.org/TR/2001/REC-SVG-20010904/DTD/svg10.dtd">
<svg version="1.0" xmlns="http://www.w3.org/2000/svg"
 width="150.000000pt" height="150.000000pt" viewBox="0 0 150.000000 150.000000"
 preserveAspectRatio="xMidYMid meet">
<metadata>
Created by potrace 1.14, written by Peter Selinger 2001-2017
</metadata>
<g transform="translate(0.000000,150.000000) scale(0.100000,-0.100000)"
fill="#000000" stroke="none">
<path d="M645 1316 c-122 -29 -253 -142 -295 -253 -34 -86 -38 -203 -12 -290
90 -297 463 -402 700 -198 38 33 102 114 102 129 0 3 -27 6 -60 6 -58 0 -63 2
-109 45 -54 51 -87 57 -128 25 -32 -25 -48 -25 -73 0 -23 23 -26 49 -7 72 23
29 53 30 85 3 17 -14 42 -25 59 -25 21 0 41 -12 73 -45 44 -44 45 -45 111 -45
61 0 67 2 73 23 3 12 6 25 6 30 0 4 -36 7 -80 7 l-81 0 -48 45 -48 45 -109 0
c-97 0 -111 -2 -127 -20 -33 -39 -97 -16 -97 35 0 51 61 73 95 35 16 -18 31
-20 139 -20 l122 0 49 -51 50 -51 68 5 c37 2 69 6 71 8 2 2 6 15 8 29 l3 25
-87 0 -87 0 -48 48 -49 47 -195 0 c-182 0 -196 -1 -212 -20 -19 -22 -69 -27
-84 -7 -23 29 -23 48 2 73 30 30 49 30 77 2 22 -22 29 -22 224 -23 l202 0 49
-47 50 -46 76 0 c42 0 78 2 80 6 8 14 -22 131 -46 178 -90 177 -294 268 -492
220z"/>
<path d="M40 385 c0 -8 5 -15 10 -15 6 0 10 -32 10 -75 0 -43 -4 -75 -10 -75
-5 0 -10 -7 -10 -15 0 -10 11 -15 35 -15 24 0 35 5 35 15 0 8 -4 15 -10 15 -6
0 -10 29 -10 68 l1 67 33 -80 c18 -46 38 -80 46 -80 8 0 28 34 46 80 l33 80 1
-67 c0 -39 -4 -68 -10 -68 -5 0 -10 -7 -10 -15 0 -10 11 -15 35 -15 24 0 35 5
35 15 0 8 -4 15 -10 15 -6 0 -10 32 -10 75 0 43 4 75 10 75 6 0 10 7 10 15 0
10 -10 15 -33 15 -32 0 -34 -2 -62 -80 -16 -44 -32 -80 -35 -80 -4 0 -19 36
-34 80 -28 79 -29 80 -62 80 -24 0 -34 -5 -34 -15z"/>
<path d="M560 385 c0 -8 5 -15 10 -15 6 0 10 -32 10 -75 0 -43 -4 -75 -10 -75
-5 0 -10 -7 -10 -15 0 -12 16 -15 80 -15 l80 0 0 29 c0 36 -19 51 -27 22 -4
-17 -13 -21 -44 -21 l-39 0 0 75 c0 43 4 75 10 75 6 0 10 7 10 15 0 10 -11 15
-35 15 -24 0 -35 -5 -35 -15z"/>
<path d="M1160 390 c0 -5 5 -10 10 -10 6 0 10 -38 10 -94 l0 -93 45 -1 c56 -1
85 23 85 71 0 49 -21 71 -64 70 -34 -1 -36 0 -36 33 0 30 -3 34 -25 34 -14 0
-25 -4 -25 -10z m108 -89 c8 -5 12 -22 10 -42 -3 -30 -7 -34 -35 -37 -32 -3
-33 -2 -33 36 0 21 3 42 7 45 9 9 35 8 51 -2z"/>
<path d="M756 319 c-52 -41 -23 -129 44 -129 65 0 93 78 45 125 -30 30 -54 31
-89 4z m77 -30 c13 -21 2 -65 -19 -73 -41 -16 -74 50 -42 82 16 16 48 11 61
-9z"/>
<path d="M966 333 c-4 -4 -22 -6 -41 -5 -19 2 -35 -2 -35 -8 0 -5 5 -10 10
-10 14 0 13 -87 -2 -92 -21 -7 3 -28 33 -28 19 0 29 5 29 15 0 8 -4 15 -10 15
-5 0 -10 18 -10 39 0 31 4 41 20 46 11 3 24 3 30 0 13 -8 13 -82 0 -90 -18
-11 0 -25 31 -25 19 0 29 5 29 15 0 8 -4 15 -10 15 -5 0 -10 18 -10 39 0 31 4
41 20 46 12 4 27 1 35 -5 17 -14 21 -80 5 -80 -5 0 -10 -7 -10 -15 0 -10 10
-15 30 -15 20 0 30 5 30 15 0 8 -4 15 -10 15 -5 0 -10 22 -10 50 0 58 -20 77
-64 60 -17 -6 -35 -6 -52 0 -30 12 -29 12 -38 3z"/>
<path d="M1367 331 c-31 -12 -24 -25 12 -25 19 -1 36 -7 38 -13 3 -8 -4 -13
-19 -13 -50 0 -87 -52 -55 -78 19 -16 117 -13 117 4 0 8 -4 14 -8 14 -5 0 -9
21 -9 46 0 62 -27 85 -76 65z m53 -90 c0 -15 -29 -33 -45 -27 -28 10 -17 36
15 36 17 0 30 -4 30 -9z"/>
<path d="M330 320 c0 -5 5 -12 10 -15 6 -3 10 -24 10 -46 0 -21 -4 -39 -10
-39 -5 0 -10 -7 -10 -15 0 -10 11 -15 35 -15 24 0 35 5 35 15 0 8 -5 15 -11
15 -6 0 -9 17 -7 43 3 37 6 42 26 39 14 -2 22 2 22 12 0 11 -12 15 -50 14 -27
0 -50 -4 -50 -8z"/>
<path d="M440 211 c0 -12 6 -21 16 -21 9 0 14 7 12 17 -5 25 -28 28 -28 4z"/>
</g>
</svg>
